<?xml version="1.0" encoding="utf-8"?>
<!-- Generator: Adobe Illustrator 23.0.1, SVG Export Plug-In . SVG Version: 6.00 Build 0)  -->
<svg version="1.1" id="Layer_1" xmlns="http://www.w3.org/2000/svg" xmlns:xlink="http://www.w3.org/1999/xlink" x="0px" y="0px"
	 viewBox="0 0 3000 3000" style="enable-background:new 0 0 3000 3000;" xml:space="preserve">
<style type="text/css">
	.st0{fill:#FFFFFF;}
</style>
<path class="st0" d="M147.78,1816.73h633.47v-633.47H147.78V1816.73z M449.87,1682.71H365.3v-365.42
	c46.71,0,84.57,37.86,84.57,84.57V1682.71z M563.73,1682.71L563.73,1682.71c-46.71,0-84.57-37.86-84.57-84.57v-280.85h84.57V1682.71
	z"/>
<polygon class="st0" points="1234.14,1316.86 1234.14,1678.8 1165.37,1678.8 984.92,1459.05 984.92,1678.8 902.19,1678.8 
	902.19,1316.86 971.47,1316.86 1151.41,1536.61 1151.41,1316.86 "/>
<path class="st0" d="M1291.54,1643.12l28.44-63.08c30.51,22.23,76.01,37.75,119.44,37.75c49.64,0,69.8-16.55,69.8-38.78
	c0-67.73-210.44-21.2-210.44-155.64c0-61.53,49.64-112.72,152.53-112.72c45.5,0,92.04,10.86,125.64,32.06l-25.85,63.6
	c-33.61-19.13-68.25-28.44-100.31-28.44c-49.63,0-68.77,18.61-68.77,41.36c0,66.7,210.44,20.68,210.44,153.57
	c0,60.49-50.15,112.2-153.57,112.2C1381.51,1685,1323.6,1667.94,1291.54,1643.12"/>
<rect x="1649.87" y="1316.86" class="st0" width="83.76" height="361.94"/>
<polygon class="st0" points="2148.82,1678.8 2148.31,1461.64 2041.79,1640.54 2004.05,1640.54 1898.05,1466.29 1898.05,1678.8 
	1819.46,1678.8 1819.46,1316.86 1888.74,1316.86 2024.21,1541.78 2157.61,1316.86 2226.38,1316.86 2227.42,1678.8 "/>
<path class="st0" d="M2645.2,1580.04c0,62.56-49.63,98.76-144.77,98.76h-187.18v-361.94h176.83c90.49,0,137.02,37.75,137.02,94.11
	c0,36.19-18.61,64.11-48.09,79.63C2619.35,1503.52,2645.2,1534.54,2645.2,1580.04 M2396.5,1379.94v85.31h83.24
	c40.85,0,63.08-14.48,63.08-42.92c0-28.44-22.23-42.4-63.08-42.4H2396.5z M2560.92,1571.25c0-30.51-23.27-44.98-66.7-44.98h-97.73
	v89.45h97.73C2537.66,1615.72,2560.92,1602.27,2560.92,1571.25"/>
<rect x="2708.81" y="1316.86" class="st0" width="83.76" height="361.94"/>
</svg>
